<svg width="34" height="27" viewBox="0 0 34 27" fill="none" xmlns="http://www.w3.org/2000/svg">
<path d="M31.1667 12.625H30.6883L29.2647 18.5833H12.1814L6.97668 2.90751C6.92038 2.74117 6.82262 2.59026 6.69173 2.46764C6.56085 2.34502 6.40072 2.25434 6.22501 2.20334L1.55557 0.838339C1.41199 0.796371 1.26113 0.781714 1.11159 0.795206C0.962061 0.808697 0.816785 0.850072 0.684062 0.916969C0.416015 1.05207 0.215369 1.28293 0.126264 1.55876C0.0371584 1.83458 0.0668928 2.13278 0.208926 2.38775C0.350958 2.64272 0.593655 2.83358 0.883625 2.91834L4.97224 4.11001L10.1997 19.8183L8.33196 21.27L8.1839 21.4108C7.7219 21.9173 7.46003 22.5611 7.44339 23.2315C7.42676 23.9018 7.65641 24.5567 8.09279 25.0833C8.40321 25.4424 8.79766 25.7274 9.24459 25.9155C9.69153 26.1036 10.1785 26.1896 10.6667 26.1667H29.6747C29.9768 26.1667 30.2665 26.0525 30.4801 25.8494C30.6936 25.6462 30.8136 25.3707 30.8136 25.0833C30.8136 24.796 30.6936 24.5205 30.4801 24.3173C30.2665 24.1141 29.9768 24 29.6747 24H10.4845C10.3533 23.9957 10.2255 23.9594 10.1135 23.8944C10.0014 23.8295 9.90885 23.7381 9.84474 23.6292C9.78062 23.5203 9.74712 23.3975 9.74746 23.2727C9.7478 23.1479 9.78197 23.0253 9.84668 22.9167L12.5914 20.75H30.1758C30.4391 20.7561 30.6965 20.6753 30.9041 20.5212C31.1118 20.3671 31.2569 20.1494 31.3147 19.905L33.1028 12.4192C32.4678 12.5577 31.8182 12.6268 31.1667 12.625Z" fill="#2B4C59"/>
</svg>
